<svg width="201" height="600" viewBox="0 0 201 600" fill="none" xmlns="http://www.w3.org/2000/svg">
<path fill-rule="evenodd" clip-rule="evenodd" d="M172.598 100.982C174.812 100.574 176.253 98.419 175.785 96.2168L174.976 92.4113C174.517 90.2505 172.393 88.8711 170.232 89.3304L33.2913 118.438C31.1305 118.897 29.7511 121.021 30.2104 123.182L30.2326 123.287C30.6831 125.406 32.7397 126.782 34.8708 126.389L172.598 100.982ZM168.153 81.5487C170.314 81.0894 171.693 78.9653 171.234 76.8044L170.425 72.999C169.957 70.7968 167.764 69.4145 165.576 69.942L29.4215 102.751C27.3148 103.258 25.9954 105.351 26.446 107.471L26.4682 107.575C26.9275 109.736 29.0515 111.116 31.2124 110.656L168.153 81.5487Z" fill="#0B524C"/>
<path fill-rule="evenodd" clip-rule="evenodd" d="M99.4641 295.424C99.4641 305.259 105.637 313.651 114.319 316.939C114.697 317.082 114.963 317.429 114.988 317.832L116.529 342.939C116.565 343.514 116.108 344 115.531 344H84.8046C84.2282 344 83.7711 343.514 83.8064 342.939L85.401 316.97C85.4551 316.088 84.3983 315.548 83.6638 316.04C80.5314 318.137 76.7645 319.36 72.712 319.36C61.8254 319.36 53 310.534 53 299.648C53 288.761 61.8254 279.936 72.712 279.936C73.4933 279.936 74.2639 279.981 75.0215 280.069C75.659 280.144 76.2319 279.639 76.2319 278.997V278.997C76.2319 266.296 86.5282 256 99.2292 256C107.548 256 114.835 260.417 118.873 267.033C119.116 267.43 119.591 267.623 120.041 267.508C121.865 267.043 123.777 266.795 125.747 266.795C138.448 266.795 148.744 277.091 148.744 289.792C148.744 302.494 138.448 312.79 125.747 312.79C113.046 312.79 102.749 302.494 102.749 289.792C102.749 289.16 102.775 288.533 102.825 287.914C102.918 286.762 101.397 286.108 100.983 287.188C100.002 289.745 99.4641 292.522 99.4641 295.424Z" fill="#0B524C"/>
<path d="M64.8281 481.125C65.1094 479.688 65.5 478.141 66 476.484C66.5312 474.828 67.0625 473.297 67.5938 471.891C68.1562 470.453 68.6406 469.328 69.0469 468.516C69.7656 467.203 70.5938 466.25 71.5312 465.656C72.4688 465.031 73.7188 464.609 75.2812 464.391C76.875 464.172 79.7344 464 83.8594 463.875C87.9844 463.75 93.6094 463.688 100.734 463.688C107.859 463.688 113.5 463.75 117.656 463.875C121.812 463.969 124.672 464.141 126.234 464.391C127.797 464.609 129.031 465.031 129.938 465.656C130.875 466.25 131.719 467.203 132.469 468.516C132.906 469.297 133.375 470.406 133.875 471.844C134.406 473.281 134.922 474.828 135.422 476.484C135.953 478.141 136.391 479.688 136.734 481.125C136.984 482.219 136.875 483.047 136.406 483.609C135.969 484.141 135.156 484.375 133.969 484.312C131.688 484.188 129.078 484.062 126.141 483.938C123.203 483.812 119.688 483.703 115.594 483.609C111.5 483.516 106.547 483.469 100.734 483.469C94.9531 483.469 90.0156 483.516 85.9219 483.609C81.8281 483.703 78.3125 483.812 75.375 483.938C72.4375 484.062 69.8281 484.188 67.5469 484.312C66.3906 484.375 65.5781 484.141 65.1094 483.609C64.6406 483.047 64.5469 482.219 64.8281 481.125ZM66.0938 517.734C63.7812 517.734 61.8594 516.969 60.3281 515.438C58.7969 513.875 58.0312 511.969 58.0312 509.719C58.0312 507.406 58.7969 505.484 60.3281 503.953C61.8594 502.391 63.7812 501.609 66.0938 501.609C68.375 501.609 70.2812 502.391 71.8125 503.953C73.375 505.484 74.1562 507.406 74.1562 509.719C74.1562 511.969 73.375 513.875 71.8125 515.438C70.2812 516.969 68.375 517.734 66.0938 517.734ZM87.9375 515.719C86.2188 515.719 84.8125 515.172 83.7188 514.078C82.625 512.984 82.0781 511.578 82.0781 509.859C82.0781 508.141 82.625 506.75 83.7188 505.688C84.8125 504.594 86.2188 504.047 87.9375 504.047H113.578C115.297 504.047 116.703 504.594 117.797 505.688C118.891 506.75 119.438 508.141 119.438 509.859C119.438 511.578 118.891 512.984 117.797 514.078C116.703 515.172 115.297 515.719 113.578 515.719H87.9375ZM135.422 517.734C133.141 517.734 131.234 516.969 129.703 515.438C128.172 513.875 127.406 511.969 127.406 509.719C127.406 507.406 128.172 505.484 129.703 503.953C131.234 502.391 133.141 501.609 135.422 501.609C137.703 501.609 139.609 502.391 141.141 503.953C142.703 505.484 143.484 507.406 143.484 509.719C143.484 511.969 142.703 513.875 141.141 515.438C139.609 516.969 137.703 517.734 135.422 517.734ZM100.734 531.094C104.797 531.094 109.047 531.047 113.484 530.953C117.922 530.859 122.266 530.734 126.516 530.578C130.797 530.391 134.703 530.188 138.234 529.969C141.797 529.75 144.688 529.516 146.906 529.266C150.438 528.828 153.172 527.625 155.109 525.656C157.078 523.688 158.062 521.016 158.062 517.641V509.906C158.062 507.062 157.875 504.594 157.5 502.5C157.156 500.375 156.547 498.406 155.672 496.594C154.797 494.781 153.625 492.922 152.156 491.016L147.891 485.719C147.328 482.906 146.641 480.125 145.828 477.375C145.016 474.625 144.203 472.156 143.391 469.969C142.609 467.781 141.953 466.109 141.422 464.953C140.078 462.109 138.156 459.844 135.656 458.156C133.156 456.469 130.25 455.406 126.938 454.969C125.719 454.781 123.859 454.641 121.359 454.547C118.891 454.422 115.891 454.344 112.359 454.312C108.859 454.25 104.984 454.219 100.734 454.219C96.5156 454.219 92.6406 454.25 89.1094 454.312C85.6094 454.375 82.6094 454.469 80.1094 454.594C77.6094 454.688 75.7812 454.812 74.625 454.969C71.2812 455.375 68.3594 456.438 65.8594 458.156C63.3594 459.844 61.4531 462.109 60.1406 464.953C59.5781 466.109 58.8906 467.781 58.0781 469.969C57.2969 472.156 56.5 474.625 55.6875 477.375C54.875 480.125 54.1875 482.906 53.625 485.719L49.3594 491.016C47.8594 492.922 46.6875 494.781 45.8438 496.594C45 498.406 44.3906 500.375 44.0156 502.5C43.6406 504.594 43.4531 507.062 43.4531 509.906V517.641C43.4531 521.016 44.4219 523.703 46.3594 525.703C48.3281 527.672 51.0781 528.859 54.6094 529.266C56.8281 529.516 59.7031 529.75 63.2344 529.969C66.7656 530.188 70.6562 530.391 74.9062 530.578C79.1875 530.734 83.5469 530.859 87.9844 530.953C92.4531 531.047 96.7031 531.094 100.734 531.094ZM49.875 544.594H55.5938C57.4062 544.594 58.9375 543.969 60.1875 542.719C61.4375 541.5 62.0625 539.984 62.0625 538.172V526.125L43.4531 516.609V538.172C43.4531 539.984 44.0625 541.5 45.2812 542.719C46.5312 543.969 48.0625 544.594 49.875 544.594ZM145.922 544.594H151.641C153.453 544.594 154.969 543.969 156.188 542.719C157.438 541.5 158.062 539.984 158.062 538.172V516.609L139.5 526.125V538.172C139.5 539.984 140.109 541.5 141.328 542.719C142.578 543.969 144.109 544.594 145.922 544.594Z" fill="#0B524C"/>
</svg>
