<svg width="600" height="200" viewBox="0 0 600 200" fill="none" xmlns="http://www.w3.org/2000/svg">
<path fill-rule="evenodd" clip-rule="evenodd" d="M171.77 100.982C173.985 100.574 175.426 98.419 174.957 96.2168L174.149 92.4113C173.689 90.2505 171.565 88.8711 169.404 89.3304L32.4637 118.438C30.3028 118.897 28.9234 121.021 29.3827 123.182L29.4049 123.287C29.8555 125.406 31.912 126.782 34.0431 126.389L171.77 100.982ZM167.325 81.5487C169.486 81.0894 170.866 78.9653 170.406 76.8044L169.597 72.999C169.129 70.7968 166.937 69.4145 164.748 69.942L28.5939 102.751C26.4871 103.258 25.1678 105.351 25.6183 107.471L25.6405 107.575C26.0998 109.736 28.2239 111.116 30.3847 110.656L167.325 81.5487Z" fill="#0B524C"/>
<path fill-rule="evenodd" clip-rule="evenodd" d="M298.636 95.4243C298.636 105.259 304.809 113.651 313.492 116.939C313.869 117.082 314.135 117.429 314.16 117.832L315.702 142.939C315.737 143.514 315.28 144 314.704 144H283.977C283.401 144 282.943 143.514 282.979 142.939L284.573 116.97C284.627 116.088 283.571 115.548 282.836 116.04C279.704 118.137 275.937 119.36 271.884 119.36C260.998 119.36 252.172 110.534 252.172 99.6475C252.172 88.7609 260.998 79.9355 271.884 79.9355C272.666 79.9355 273.436 79.981 274.194 80.0694C274.831 80.1438 275.404 79.6393 275.404 78.9973V78.9973C275.404 66.2963 285.701 56 298.402 56C306.72 56 314.007 60.4169 318.046 67.0334C318.288 67.4302 318.763 67.6234 319.213 67.5084C321.038 67.0427 322.949 66.7951 324.919 66.7951C337.62 66.7951 347.916 77.0914 347.916 89.7924C347.916 102.494 337.62 112.79 324.919 112.79C312.218 112.79 301.922 102.494 301.922 89.7924C301.922 89.1599 301.947 88.5333 301.997 87.9137C302.09 86.7616 300.569 86.1084 300.155 87.1876C299.174 89.7447 298.636 92.5217 298.636 95.4243Z" fill="#0B524C"/>
<path d="M464 81.125C464.282 79.6875 464.672 78.1406 465.172 76.4844C465.704 74.8281 466.235 73.2969 466.766 71.8906C467.329 70.4531 467.813 69.3281 468.219 68.5156C468.938 67.2031 469.766 66.25 470.704 65.6562C471.641 65.0312 472.891 64.6094 474.454 64.3906C476.047 64.1719 478.907 64 483.032 63.875C487.157 63.75 492.782 63.6875 499.907 63.6875C507.032 63.6875 512.672 63.75 516.829 63.875C520.985 63.9688 523.844 64.1406 525.407 64.3906C526.969 64.6094 528.204 65.0312 529.11 65.6562C530.047 66.25 530.891 67.2031 531.641 68.5156C532.079 69.2969 532.547 70.4062 533.047 71.8438C533.579 73.2812 534.094 74.8281 534.594 76.4844C535.125 78.1406 535.563 79.6875 535.907 81.125C536.157 82.2188 536.047 83.0469 535.579 83.6094C535.141 84.1406 534.329 84.375 533.141 84.3125C530.86 84.1875 528.25 84.0625 525.313 83.9375C522.375 83.8125 518.86 83.7031 514.766 83.6094C510.672 83.5156 505.719 83.4688 499.907 83.4688C494.125 83.4688 489.188 83.5156 485.094 83.6094C481 83.7031 477.485 83.8125 474.547 83.9375C471.61 84.0625 469 84.1875 466.719 84.3125C465.563 84.375 464.75 84.1406 464.282 83.6094C463.813 83.0469 463.719 82.2188 464 81.125ZM465.266 117.734C462.954 117.734 461.032 116.969 459.5 115.438C457.969 113.875 457.204 111.969 457.204 109.719C457.204 107.406 457.969 105.484 459.5 103.953C461.032 102.391 462.954 101.609 465.266 101.609C467.547 101.609 469.454 102.391 470.985 103.953C472.547 105.484 473.329 107.406 473.329 109.719C473.329 111.969 472.547 113.875 470.985 115.438C469.454 116.969 467.547 117.734 465.266 117.734ZM487.11 115.719C485.391 115.719 483.985 115.172 482.891 114.078C481.797 112.984 481.25 111.578 481.25 109.859C481.25 108.141 481.797 106.75 482.891 105.688C483.985 104.594 485.391 104.047 487.11 104.047H512.75C514.469 104.047 515.875 104.594 516.969 105.688C518.063 106.75 518.61 108.141 518.61 109.859C518.61 111.578 518.063 112.984 516.969 114.078C515.875 115.172 514.469 115.719 512.75 115.719H487.11ZM534.594 117.734C532.313 117.734 530.407 116.969 528.875 115.438C527.344 113.875 526.579 111.969 526.579 109.719C526.579 107.406 527.344 105.484 528.875 103.953C530.407 102.391 532.313 101.609 534.594 101.609C536.875 101.609 538.782 102.391 540.313 103.953C541.875 105.484 542.657 107.406 542.657 109.719C542.657 111.969 541.875 113.875 540.313 115.438C538.782 116.969 536.875 117.734 534.594 117.734ZM499.907 131.094C503.969 131.094 508.219 131.047 512.657 130.953C517.094 130.859 521.438 130.734 525.688 130.578C529.969 130.391 533.875 130.188 537.407 129.969C540.969 129.75 543.86 129.516 546.079 129.266C549.61 128.828 552.344 127.625 554.282 125.656C556.25 123.688 557.235 121.016 557.235 117.641V109.906C557.235 107.062 557.047 104.594 556.672 102.5C556.329 100.375 555.719 98.4062 554.844 96.5938C553.969 94.7812 552.797 92.9219 551.329 91.0156L547.063 85.7188C546.5 82.9062 545.813 80.125 545 77.375C544.188 74.625 543.375 72.1562 542.563 69.9688C541.782 67.7812 541.125 66.1094 540.594 64.9531C539.25 62.1094 537.329 59.8438 534.829 58.1562C532.329 56.4688 529.422 55.4062 526.11 54.9688C524.891 54.7812 523.032 54.6406 520.532 54.5469C518.063 54.4219 515.063 54.3438 511.532 54.3125C508.032 54.25 504.157 54.2188 499.907 54.2188C495.688 54.2188 491.813 54.25 488.282 54.3125C484.782 54.375 481.782 54.4688 479.282 54.5938C476.782 54.6875 474.954 54.8125 473.797 54.9688C470.454 55.375 467.532 56.4375 465.032 58.1562C462.532 59.8438 460.625 62.1094 459.313 64.9531C458.75 66.1094 458.063 67.7812 457.25 69.9688C456.469 72.1562 455.672 74.625 454.86 77.375C454.047 80.125 453.36 82.9062 452.797 85.7188L448.532 91.0156C447.032 92.9219 445.86 94.7812 445.016 96.5938C444.172 98.4062 443.563 100.375 443.188 102.5C442.813 104.594 442.625 107.062 442.625 109.906V117.641C442.625 121.016 443.594 123.703 445.532 125.703C447.5 127.672 450.25 128.859 453.782 129.266C456 129.516 458.875 129.75 462.407 129.969C465.938 130.188 469.829 130.391 474.079 130.578C478.36 130.734 482.719 130.859 487.157 130.953C491.625 131.047 495.875 131.094 499.907 131.094ZM449.047 144.594H454.766C456.579 144.594 458.11 143.969 459.36 142.719C460.61 141.5 461.235 139.984 461.235 138.172V126.125L442.625 116.609V138.172C442.625 139.984 443.235 141.5 444.454 142.719C445.704 143.969 447.235 144.594 449.047 144.594ZM545.094 144.594H550.813C552.625 144.594 554.141 143.969 555.36 142.719C556.61 141.5 557.235 139.984 557.235 138.172V116.609L538.672 126.125V138.172C538.672 139.984 539.282 141.5 540.5 142.719C541.75 143.969 543.282 144.594 545.094 144.594Z" fill="#0B524C"/>
</svg>
