<svg width="608" height="152" viewBox="0 0 608 152" fill="none" xmlns="http://www.w3.org/2000/svg">
<path d="M96 58C60 66 51.6 90.68 43.28 111.36L50.84 114L54.64 104.8C56.56 105.48 58.56 106 60 106C104 106 116 38 116 38C112 46 84 47 64 51C44 55 36 72 36 80C36 88 43 95 43 95C56 58 96 58 96 58Z" fill="#0F544E"/>
<path d="M223.556 62.1111C223.556 62.6634 223.108 63.1111 222.556 63.1111H215.667C215.114 63.1111 214.667 62.6634 214.667 62.1111V33C214.667 32.4477 214.219 32 213.667 32H206.778C206.225 32 205.778 32.4477 205.778 33V62.1111C205.778 62.6634 205.33 63.1111 204.778 63.1111H197.889C197.337 63.1111 196.889 62.6634 196.889 62.1111V33C196.889 32.4477 196.441 32 195.889 32H189C188.448 32 188 32.4477 188 33V63.1111C188 72.2144 194.887 79.6583 203.73 80.6728C204.255 80.733 204.667 81.1671 204.667 81.6953V119.889C204.667 120.441 205.114 120.889 205.667 120.889H214.778C215.33 120.889 215.778 120.441 215.778 119.889V81.6953C215.778 81.1671 216.189 80.733 216.714 80.6728C225.558 79.6583 232.444 72.2144 232.444 63.1111V33C232.444 32.4477 231.997 32 231.444 32H224.556C224.003 32 223.556 32.4477 223.556 33V62.1111ZM245.778 49.7778V84.3333C245.778 84.8856 246.225 85.3333 246.778 85.3333H255.889C256.441 85.3333 256.889 85.781 256.889 86.3333V119.889C256.889 120.441 257.337 120.889 257.889 120.889H267C267.552 120.889 268 120.441 268 119.889V33C268 32.4477 267.551 31.9977 267 32.0221C255.197 32.5426 245.778 42.1694 245.778 49.7778Z" fill="#0F544E"/>
<path d="M569.81 65.4816C579.262 79.6603 555.631 122.196 546.179 122.196C536.726 122.196 536.726 117.47 532 117.47C527.274 117.47 527.274 122.196 517.821 122.196C508.369 122.196 484.738 79.6603 494.19 65.4816C503.643 51.3029 517.821 51.3029 527.274 56.0291V41.8504C500.712 56.36 494.71 36.0844 494.71 36.0844C494.71 36.0844 507.282 19.1173 527.274 41.8504V32.398H536.726V56.0291C546.179 51.3029 560.357 51.3029 569.81 65.4816Z" fill="#0F544E"/>
<path fill-rule="evenodd" clip-rule="evenodd" d="M400.849 61.9406C400.009 63.2724 400.966 65.0076 402.54 65.0076H408.771C409.464 65.0076 410.108 64.6488 410.472 64.0593L424.354 41.6037C424.943 40.6496 424.633 39.397 423.666 38.8282L419.328 36.2764C418.397 35.7286 417.199 36.0194 416.623 36.9333L400.849 61.9406ZM336 69.579H396.171H423.429C424.533 69.579 425.429 70.4745 425.429 71.579V83.2933C425.429 101.122 411.257 115.293 393.429 115.293H366C348.171 115.293 334 101.122 334 83.2933V71.579C334 70.4745 334.895 69.579 336 69.579ZM391 63.2935C393.761 63.2935 396 61.0549 396 58.2935C396 55.532 393.761 53.2935 391 53.2935C388.239 53.2935 386 55.532 386 58.2935C386 61.0549 388.239 63.2935 391 63.2935ZM381 58.2935C381 61.0549 378.761 63.2935 376 63.2935C373.239 63.2935 371 61.0549 371 58.2935C371 55.532 373.239 53.2935 376 53.2935C378.761 53.2935 381 55.532 381 58.2935ZM385 48.2935C387.761 48.2935 390 46.0549 390 43.2935C390 40.532 387.761 38.2935 385 38.2935C382.239 38.2935 380 40.532 380 43.2935C380 46.0549 382.239 48.2935 385 48.2935ZM366 58.2935C366 61.0549 363.761 63.2935 361 63.2935C358.239 63.2935 356 61.0549 356 58.2935C356 55.532 358.239 53.2935 361 53.2935C363.761 53.2935 366 55.532 366 58.2935ZM370 48.2935C372.761 48.2935 375 46.0549 375 43.2935C375 40.532 372.761 38.2935 370 38.2935C367.239 38.2935 365 40.532 365 43.2935C365 46.0549 367.239 48.2935 370 48.2935ZM351 58.2935C351 61.0549 348.761 63.2935 346 63.2935C343.239 63.2935 341 61.0549 341 58.2935C341 55.532 343.239 53.2935 346 53.2935C348.761 53.2935 351 55.532 351 58.2935ZM355 48.2935C357.761 48.2935 360 46.0549 360 43.2935C360 40.532 357.761 38.2935 355 38.2935C352.239 38.2935 350 40.532 350 43.2935C350 46.0549 352.239 48.2935 355 48.2935Z" fill="#0F544E"/>
</svg>
