<svg width="48" height="48" viewBox="0 0 48 48" fill="none" xmlns="http://www.w3.org/2000/svg">
<path d="M30.9696 32.6662L23.2592 25.0624L15.5474 17.4586C15.5474 17.4586 16.1799 32.791 0 36.7807C0 36.7807 1.43475 40.1905 4.67686 43.3878C7.91896 46.5851 11.3766 48 11.3766 48C15.4222 32.0424 30.9696 32.6662 30.9696 32.6662Z" fill="#9CA022"/>
<path d="M18.2028 22.0708C17.192 27.0573 11.1235 35.0354 11.1235 35.0354L23.2578 23.0689C27.3021 19.0805 18.2028 22.0708 18.2028 22.0708ZM35.3934 31.0456C35.3934 31.0456 20.2256 32.0424 11.1235 39.0238C22.2471 28.054 27.3035 27.0573 27.3035 27.0573L35.3934 31.0456Z" fill="#17443C"/>
<path d="M40.9002 37.9722C41.8275 38.0339 42.7743 37.7281 43.4833 37.0289C44.786 35.7442 44.786 33.6602 43.4833 32.3756C43.3651 32.259 43.2331 32.1644 43.1024 32.0684C43.6738 31.93 44.2174 31.6516 44.6636 31.2115C45.096 30.7851 45.3713 30.2683 45.5159 29.7253C46.0664 29.5814 46.5905 29.3113 47.0229 28.8849C48.3256 27.6002 48.3256 25.5162 47.0229 24.2315C48.3256 22.9469 48.3256 20.8629 47.0229 19.5782C46.5335 19.0956 45.9302 18.794 45.2976 18.6747C45.8954 17.4503 45.6924 15.9408 44.6636 14.9249C44.2174 14.4848 43.6738 14.2064 43.1024 14.068C43.2331 13.972 43.3651 13.8774 43.4833 13.7609C44.786 12.4762 44.786 10.3922 43.4833 9.10752C42.4531 8.09157 40.9224 7.8914 39.6809 8.48232C39.5586 7.8585 39.2541 7.26346 38.7647 6.78085C38.0557 6.08162 37.1089 5.77725 36.1816 5.83757C36.2442 4.92309 35.9342 3.9894 35.2251 3.29017C33.9224 2.0055 31.8092 2.0055 30.5066 3.29017C29.4764 2.27422 27.9457 2.07405 26.7042 2.66497C26.5818 2.04115 26.2774 1.44611 25.788 0.963503C24.4853 -0.321168 22.3721 -0.321168 21.0694 0.963503C20.58 1.44611 20.2742 2.04115 20.1532 2.66497C18.9117 2.07542 17.381 2.27559 16.3509 3.29017C15.9046 3.73028 15.6224 4.26636 15.4819 4.82986C15.3846 4.70098 15.2887 4.57073 15.1705 4.45419C13.8678 3.16952 11.7546 3.16952 10.452 4.45419C9.42038 5.46739 9.2174 6.97691 9.81521 8.20263C9.18264 8.32191 8.57927 8.62354 8.08989 9.10615C6.78721 10.3908 6.78721 12.4748 8.08989 13.7595C8.53617 14.1996 9.07976 14.4779 9.65116 14.6164C9.52048 14.7124 9.3884 14.807 9.27023 14.9235C7.96755 16.2082 7.96755 18.2922 9.27023 19.5768C9.7596 20.0594 10.363 20.3611 10.9956 20.4804C10.3977 21.7047 10.6007 23.2142 11.6295 24.2302C12.6597 25.2461 14.1904 25.4463 15.4319 24.8554C15.5542 25.4792 15.8587 26.0742 16.3481 26.5568C16.7944 26.9969 17.3379 27.2753 17.9093 27.4137C17.7787 27.5097 17.6466 27.6043 17.5284 27.7209C16.2257 29.0055 16.2257 31.0895 17.5284 32.3742C18.5586 33.3901 20.0893 33.5903 21.3308 32.9994C21.4531 33.6232 21.7576 34.2182 22.247 34.7009C23.1312 35.5728 24.3838 35.8388 25.5072 35.5276C25.5961 35.6428 25.6795 35.7593 25.7866 35.8649C26.4956 36.5641 27.4424 36.8685 28.3697 36.8082C28.3071 37.7226 28.6172 38.6563 29.3262 39.3556C30.6289 40.6402 32.7421 40.6402 34.0448 39.3556C34.163 39.239 34.2589 39.1088 34.3562 38.9799C34.4966 39.5434 34.7788 40.0795 35.2251 40.5196C36.5278 41.8042 38.641 41.8042 39.9437 40.5196C40.6527 39.8203 40.9614 38.8867 40.9002 37.9722Z" fill="#0F544E"/>
</svg>
