<svg width="200" height="50" viewBox="0 0 200 50" fill="none" xmlns="http://www.w3.org/2000/svg">
<path d="M14.5634 49.4613C11.3729 48.2648 9.77766 47.6666 9.42664 47.1964C8.73271 46.2668 8.97263 44.9438 9.94877 44.317C10.4425 44 12.1463 44 15.5537 44H184.446C187.854 44 189.557 44 190.051 44.317C191.027 44.9438 191.267 46.2668 190.573 47.1964C190.222 47.6666 188.627 48.2648 185.437 49.4613V49.4613C185.02 49.6174 184.812 49.6955 184.6 49.7577C184.194 49.8768 183.776 49.9526 183.353 49.9838C183.133 50 182.91 50 182.466 50H17.5343C17.0895 50 16.8672 50 16.6469 49.9838C16.2244 49.9526 15.8065 49.8768 15.4 49.7577C15.1881 49.6955 14.9798 49.6174 14.5634 49.4613V49.4613Z" fill="#0F544E"/>
<path d="M9 34V0H16V34H9Z" fill="#0F544E"/>
<path d="M37.3895 9H44V34H37.3895V31.112C36.1095 33.832 33.6455 34 29.9975 34C27.5015 34 25.5495 33.504 24.1415 32.128C22.7655 30.72 22 28.656 22 25.936V9H29.0855V22C29.0855 24.848 30.3335 28.624 32.8295 28.624C35.8695 28.624 37.3895 26.064 37.3895 22V9Z" fill="#0F544E"/>
<path d="M57.1692 9V13.792C57.7772 12.448 58.7052 11.392 59.9532 10.624C61.2332 9.82399 62.7533 9 64.5132 9C67.0092 9 68.592 10.176 70 11.68C71.408 13.152 72 15.328 72 18.208V34H65.4732V19.504C65.4732 18.064 65.1372 16.976 64.4652 16.24C63.7932 15.472 62.8492 15.088 61.6332 15.088C60.3532 15.088 59.2812 15.6 58.4172 16.624C57.5852 17.616 57.1692 19.12 57.1692 21.136V34H50V9H57.1692Z" fill="#0F544E"/>
<path d="M83.909 21.904C84.037 24.048 84.677 25.712 85.829 26.896C86.981 28.08 88.501 28.672 90.389 28.672C92.405 28.672 94.144 28.112 96 26.992V32.848C94.112 33.872 92.037 34 89.381 34C85.733 34 82.725 33.232 80.357 30.928C77.989 28.592 76.805 25.584 76.805 21.904C76.869 18.256 78.053 15.248 80.357 12.88C82.661 10.48 85.813 9 89.813 9C92.277 9 94.208 9.74399 96 10.672V16.672C94.304 15.616 92.613 15.088 90.533 15.088C88.581 15.088 86.997 15.68 85.781 16.864C84.565 18.016 83.941 19.696 83.909 21.904Z" fill="#0F544E"/>
<path d="M107.513 0V13.792C108.761 10.88 111.193 9 114.809 9C117.177 9 119.097 10.176 120.569 11.68C122.073 13.184 122.825 15.456 122.825 18.496V34H115.817V19.6C115.817 18.192 115.465 17.088 114.761 16.288C114.057 15.488 113.145 15.088 112.025 15.088C111.545 15.088 111.081 15.168 110.633 15.328C110.217 15.456 109.753 15.712 109.241 16.096C108.729 16.448 108.313 17.072 107.993 17.968C107.673 18.832 107.513 19.888 107.513 21.136V34H100.505V0H107.513Z" fill="#0F544E"/>
<path d="M129 34V0H136V34H129Z" fill="#0F544E"/>
<path d="M153.662 24.016H151.406C150.222 24.016 149.31 24.272 148.67 24.784C148.03 25.296 147.71 25.952 147.71 26.752C147.71 28.384 148.654 29.2 150.542 29.2C151.534 29.2 152.302 28.896 152.846 28.288C153.39 27.68 153.662 26.848 153.662 25.792V24.016ZM142 17.152V10.864C143.92 9.77599 146.974 9 150.59 9C154.046 9 156.622 9.98399 158.318 11.488C160.014 12.96 160.862 15.264 160.862 18.4V34H153.998V31.024C152.974 33.104 150.958 34 147.95 34C145.582 34 143.726 33.472 142.382 32.128C141.07 30.784 140 29.104 140 27.088C140 24.752 141.262 22.944 142.958 21.664C144.686 20.352 147.23 19.696 150.59 19.696H153.662V18.016C153.662 15.968 152.302 14.944 149.582 14.944C146.958 14.944 144.24 15.68 142 17.152Z" fill="#0F544E"/>
<path d="M178.748 28.432C180.22 28.432 181.468 27.84 182.492 26.656C183.516 25.44 184.028 23.856 184.028 21.904C184.028 19.792 183.516 18.144 182.492 16.96C181.5 15.776 180.268 15.184 178.796 15.184C177.324 15.184 176.044 15.744 174.956 16.864C173.9 17.984 173.372 19.552 173.372 21.568C173.372 23.648 173.868 25.312 174.86 26.56C175.852 27.808 177.148 28.432 178.748 28.432ZM173.372 0V13.408C175.036 10.72 177.452 9 180.62 9C183.66 9 186.172 10.48 188.156 12.688C190.14 14.896 191 17.92 191 21.76C191 25.184 190.172 28.128 188.252 30.592C186.364 33.056 183.836 34 180.668 34C177.436 34 175.004 32.928 173.372 30.208V34H166V0H173.372Z" fill="#0F544E"/>
</svg>
