<svg width="202" height="50" viewBox="0 0 202 50" fill="none" xmlns="http://www.w3.org/2000/svg">
<path d="M15.6247 49.5146C12.1683 48.2947 10.4401 47.6847 10.0769 47.2013C9.38649 46.2823 9.61096 44.9719 10.5678 44.335C11.0712 44 12.9039 44 16.5693 44H185.431C189.096 44 190.929 44 191.432 44.335C192.389 44.9719 192.614 46.2823 191.923 47.2013C191.56 47.6847 189.832 48.2947 186.375 49.5146V49.5146C185.97 49.6575 185.768 49.729 185.562 49.7855C185.182 49.89 184.792 49.9568 184.398 49.9848C184.186 50 183.971 50 183.542 50H18.4585C18.0291 50 17.8144 50 17.6015 49.9848C17.208 49.9568 16.8182 49.89 16.4378 49.7855C16.2321 49.729 16.0296 49.6575 15.6247 49.5146V49.5146Z" fill="#F9BC6E"/>
<path d="M10 34V0H17V34H10Z" fill="#0F544E"/>
<path d="M38.3895 9H45V34H38.3895V31.112C37.1095 33.832 34.6455 34 30.9975 34C28.5015 34 26.5495 33.504 25.1415 32.128C23.7655 30.72 23 28.656 23 25.936V9H30.0855V22C30.0855 24.848 31.3335 28.624 33.8295 28.624C36.8695 28.624 38.3895 26.064 38.3895 22V9Z" fill="#0F544E"/>
<path d="M58.1692 9V13.792C58.7772 12.448 59.7052 11.392 60.9532 10.624C62.2332 9.82399 63.7532 9 65.5132 9C68.0092 9 69.592 10.176 71 11.68C72.408 13.152 73 15.328 73 18.208V34H66.4732V19.504C66.4732 18.064 66.1372 16.976 65.4652 16.24C64.7932 15.472 63.8492 15.088 62.6332 15.088C61.3532 15.088 60.2812 15.6 59.4172 16.624C58.5852 17.616 58.1692 19.12 58.1692 21.136V34H51V9H58.1692Z" fill="#0F544E"/>
<path d="M84.909 21.904C85.037 24.048 85.677 25.712 86.829 26.896C87.981 28.08 89.501 28.672 91.389 28.672C93.405 28.672 95.144 28.112 97 26.992V32.848C95.112 33.872 93.037 34 90.381 34C86.733 34 83.725 33.232 81.357 30.928C78.989 28.592 77.805 25.584 77.805 21.904C77.869 18.256 79.053 15.248 81.357 12.88C83.661 10.48 86.813 9 90.813 9C93.277 9 95.208 9.74399 97 10.672V16.672C95.304 15.616 93.613 15.088 91.533 15.088C89.581 15.088 87.997 15.68 86.781 16.864C85.565 18.016 84.941 19.696 84.909 21.904Z" fill="#0F544E"/>
<path d="M108.513 0V13.792C109.761 10.88 112.193 9 115.809 9C118.177 9 120.097 10.176 121.569 11.68C123.073 13.184 123.825 15.456 123.825 18.496V34H116.817V19.6C116.817 18.192 116.465 17.088 115.761 16.288C115.057 15.488 114.145 15.088 113.025 15.088C112.545 15.088 112.081 15.168 111.633 15.328C111.217 15.456 110.753 15.712 110.241 16.096C109.729 16.448 109.313 17.072 108.993 17.968C108.673 18.832 108.513 19.888 108.513 21.136V34H101.505V0H108.513Z" fill="#0F544E"/>
<path d="M130 34V0H137V34H130Z" fill="#0F544E"/>
<path d="M154.662 24.016H152.406C151.222 24.016 150.31 24.272 149.67 24.784C149.03 25.296 148.71 25.952 148.71 26.752C148.71 28.384 149.654 29.2 151.542 29.2C152.534 29.2 153.302 28.896 153.846 28.288C154.39 27.68 154.662 26.848 154.662 25.792V24.016ZM143 17.152V10.864C144.92 9.77599 147.974 9 151.59 9C155.046 9 157.622 9.98399 159.318 11.488C161.014 12.96 161.862 15.264 161.862 18.4V34H154.998V31.024C153.974 33.104 151.958 34 148.95 34C146.582 34 144.726 33.472 143.382 32.128C142.07 30.784 141 29.104 141 27.088C141 24.752 142.262 22.944 143.958 21.664C145.686 20.352 148.23 19.696 151.59 19.696H154.662V18.016C154.662 15.968 153.302 14.944 150.582 14.944C147.958 14.944 145.24 15.68 143 17.152Z" fill="#0F544E"/>
<path d="M179.748 28.432C181.22 28.432 182.468 27.84 183.492 26.656C184.516 25.44 185.028 23.856 185.028 21.904C185.028 19.792 184.516 18.144 183.492 16.96C182.5 15.776 181.268 15.184 179.796 15.184C178.324 15.184 177.044 15.744 175.956 16.864C174.9 17.984 174.372 19.552 174.372 21.568C174.372 23.648 174.868 25.312 175.86 26.56C176.852 27.808 178.148 28.432 179.748 28.432ZM174.372 0V13.408C176.036 10.72 178.452 9 181.62 9C184.66 9 187.172 10.48 189.156 12.688C191.14 14.896 192 17.92 192 21.76C192 25.184 191.172 28.128 189.252 30.592C187.364 33.056 184.836 34 181.668 34C178.436 34 176.004 32.928 174.372 30.208V34H167V0H174.372Z" fill="#0F544E"/>
</svg>
