<svg width="150" height="47" viewBox="0 0 150 47" fill="none" xmlns="http://www.w3.org/2000/svg">
<path d="M25.9004 31.1793C28.4823 31.1793 29.4441 29.1433 29.4441 27.3617C29.4441 25.5293 28.381 23.4423 25.9004 23.4423H11.7006C10.7387 23.4423 10.1313 22.9842 10.1313 22.1189V21.6608C10.1313 20.7954 10.7387 20.2355 11.7006 20.2355H25.5211V7.83362C25.5211 3.81242 23.3442 1 17.9274 1H4C1.51941 1 0 3.0998 0 4.98315C0 6.71379 1.46878 8.80075 4 8.80075H14.08C15.0418 8.80075 15.3456 9.00436 15.3456 9.86968V13.0584H8.10628C2.74009 13.0584 0 16.5706 0 21.1009V22.3225C0 26.8018 2.79072 31.1793 8.10628 31.1793H25.9004ZM34.4816 32.5749C34.4816 34.2317 35.8247 35.5749 37.4816 35.5749H41.5558C43.2127 35.5749 44.5558 34.2317 44.5558 32.5749V4.52503C44.5558 1.31825 42.0752 0 39.4934 0C36.8609 0 34.4816 1.26735 34.4816 4.52503V8.85165H31.9379C28.8498 8.85165 27.6854 11.1931 27.6854 13.2292C27.6854 15.3161 28.9004 17.6067 31.9379 17.6067H34.4816V32.5749ZM40.6196 47C43.6571 47 44.8721 45.5006 44.8721 43.4137C44.8721 41.3776 43.7077 39.4943 40.6196 39.4943H14.1306C13.0168 39.4943 12.7637 39.3416 12.7637 38.2217V37.6947C12.7637 34.2843 10.5362 32.91 7.70128 32.91C4.86632 32.91 2.48697 34.2334 2.48697 37.6947V39.9524C2.48697 45.3988 4.0057 47 9.67563 47H40.6196Z" fill="#0F544E"/>
<path d="M66.1218 0C62.73 0 60.9581 1.21645 60.9581 4.42323V5.03405H54.3263C51.2382 5.03405 50.0739 7.32461 50.0739 9.36067C50.0739 11.4476 51.2889 13.6364 54.3263 13.6364H61.4137V16.3851C61.4137 27.8379 58.0725 33.5388 51.6939 37.2037C49.6689 38.3745 49.2133 40.8177 50.1751 42.6502C51.2382 44.6862 54.1744 45.3479 56.3513 44.4826C61.5656 42.3957 65.8687 38.1708 68.4505 31.91C71.148 33.5204 72.6524 38.2166 72.6423 43.6511C72.639 45.4404 74.0159 47 75.8052 47H78.9771C80.5694 47 81.896 45.752 81.8976 44.1597C81.9102 32.2345 77.4947 25.4311 70.678 23.2567C70.9817 21.2207 71.1336 18.981 71.1336 16.6396V13.6364H77.816C80.8535 13.6364 81.9672 11.4476 81.9672 9.36067C81.9672 7.32461 80.9041 5.03405 77.816 5.03405H71.2855V4.42323C71.2855 1.21645 69.5136 0 66.1218 0ZM93.6989 47C95.3558 47 96.6989 45.6569 96.6989 44V4.62684C96.6989 1.31825 94.3196 0 91.6365 0C88.9534 0 86.574 1.31825 86.574 4.62684V44C86.574 45.6569 87.9172 47 89.574 47H93.6989Z" fill="#0F544E"/>
<path d="M145 47C147.761 47 150 44.7614 150 42V32.6226C150 29.2122 147.475 28 144.64 28C142.16 28 139.628 29 139.628 33H115.987C115.987 29 113.506 28 111.076 28C108.241 28 106.014 29.1613 106.014 32.6226V42C106.014 44.7614 108.252 47 111.014 47H145ZM125.099 26.4635C127.479 26.4635 128.39 24.682 128.39 23.0022C128.39 21.3225 127.377 19.49 125.099 19.49H114.772C113.861 19.49 113.506 18.981 113.506 18.3193V18.1157C113.506 17.454 113.861 16.8941 114.772 16.8941H126.669V7.22281C126.669 3.50701 124.644 1 119.581 1H107.229C104.951 1 103.938 2.74349 103.938 4.47413C103.938 6.10298 104.9 7.93543 107.229 7.93543H116.341C117.252 7.93543 117.455 8.24084 117.455 8.90256V10.5314H111.329C106.267 10.5314 103.685 13.4328 103.685 17.6067V18.5229C103.685 22.6459 106.318 26.4635 111.329 26.4635H125.099ZM140.793 26.6162H147C148.657 26.6162 150 25.2731 150 23.6162V3.91422C150 1.11464 147.475 0 145.197 0C142.868 0 140.793 1.06374 140.793 3.91422V9.36067H138.413V3.91422C138.413 1.11464 136.287 0 134.009 0C131.68 0 129.605 1.06374 129.605 3.91422V23.6162C129.605 25.2731 130.948 26.6162 132.605 26.6162H138.413V16.9959H140.793V26.6162ZM118.139 41C117.034 41 116.139 40.1046 116.139 39V38H139.527V39C139.527 40.1046 138.632 41 137.527 41H127.833H118.139Z" fill="#0F544E"/>
</svg>
