<svg width="188" height="52" viewBox="0 0 188 52" fill="none" xmlns="http://www.w3.org/2000/svg">
<path d="M9.3732 33.8372C7.45861 33.8372 6.08443 33.3402 5.25066 32.3464C4.41689 31.3525 4 29.7111 4 27.4221C4 27.0607 4.01544 26.6089 4.04632 26.0668C4.10808 25.5247 4.16984 24.832 4.2316 23.9887C4.32424 23.1153 4.43233 22.0461 4.55585 20.7812C4.67937 19.5162 4.80289 17.9802 4.92641 16.1732C5.08082 14.3661 5.23522 12.2428 5.38962 9.80329C5.5749 7.36376 5.76019 4.53271 5.94547 1.31012C5.97635 0.647528 6.05355 0.255998 6.17707 0.135527C6.26971 0.0451757 6.51676 0 6.9182 0H8.72471C9.65112 0 10.4231 0.105411 11.0407 0.316234C11.6584 0.527058 12.1524 0.813176 12.523 1.17459C12.8936 1.536 13.1561 1.95765 13.3105 2.43953C13.4649 2.89129 13.5421 3.37318 13.5421 3.88518C13.5421 4.48753 13.4957 5.36094 13.4031 6.50541C13.3413 7.61976 13.2487 8.88471 13.1252 10.3002C13.0017 11.7158 12.8781 13.1915 12.7546 14.7275C12.6311 16.2635 12.5076 17.7393 12.384 19.1548C12.2605 20.5402 12.1524 21.7901 12.0598 22.9045C11.998 24.0188 11.9672 24.8621 11.9672 25.4344C11.9672 26.2174 12.1061 26.7746 12.384 27.1059C12.6928 27.4372 13.0171 27.6781 13.3568 27.8287C13.6965 27.9492 14.0053 28.0395 14.2832 28.0998C14.592 28.1299 14.7464 28.2202 14.7464 28.3708C14.7464 29.0334 14.6692 29.696 14.5148 30.3586C14.3604 30.9911 14.0825 31.5784 13.681 32.1205C13.2796 32.6325 12.7237 33.0541 12.0135 33.3854C11.3341 33.6866 10.454 33.8372 9.3732 33.8372Z" fill="#0F544E"/>
<path d="M25.8985 12.4235C25.8985 13.056 25.8367 13.9445 25.7132 15.0889C25.6205 16.2334 25.5125 17.4231 25.3889 18.6579C25.2963 19.8927 25.1882 21.0522 25.0647 22.1365C24.9721 23.2207 24.9257 24.0038 24.9257 24.4856C24.9257 25.5398 25.1882 26.368 25.7132 26.9704C26.269 27.5426 27.0256 27.8287 27.9829 27.8287C28.8167 27.8287 29.5115 27.5125 30.0673 26.88C30.6541 26.2174 31.1173 25.3741 31.4569 24.3501C31.8275 23.296 32.1209 22.1064 32.337 20.7812C32.5532 19.456 32.7076 18.1158 32.8002 16.7605C32.9238 15.4052 33.0164 14.0951 33.0782 12.8301C33.1708 11.5351 33.2635 10.4207 33.3561 9.48706C33.387 9.24612 33.4796 9.03529 33.634 8.85459C33.7884 8.67388 34.0355 8.58353 34.3752 8.58353H36.0427C37 8.58353 37.772 8.68894 38.3587 8.89976C38.9763 9.08047 39.455 9.35153 39.7947 9.71294C40.1652 10.0744 40.4123 10.5261 40.5358 11.0682C40.6902 11.5802 40.7674 12.1826 40.7674 12.8753C40.7674 13.3271 40.7365 13.9746 40.6748 14.8179C40.6439 15.6311 40.5667 16.7755 40.4432 18.2513C40.3196 19.6969 40.1652 21.5492 39.98 23.808C39.8256 26.0367 39.6248 28.8075 39.3778 32.1205C39.316 32.7529 39.2388 33.1294 39.1462 33.2499C39.0844 33.3704 38.8374 33.4306 38.405 33.4306H36.5985C35.6721 33.4306 34.9001 33.3252 34.2825 33.1144C33.6958 32.9035 33.2171 32.6325 32.8466 32.3012C32.476 31.9699 32.2135 31.5784 32.0591 31.1266C31.9047 30.6748 31.8121 30.208 31.7812 29.7261C31.318 30.5092 30.793 31.1718 30.2063 31.7139C29.6504 32.256 29.0637 32.6927 28.4461 33.024C27.8285 33.3252 27.1954 33.536 26.547 33.6565C25.8985 33.8071 25.2654 33.8824 24.6478 33.8824C23.4743 33.8824 22.4244 33.7016 21.498 33.3402C20.5716 32.9487 19.7841 32.4367 19.1356 31.8042C18.518 31.1718 18.0394 30.4188 17.6997 29.5454C17.36 28.672 17.1902 27.7384 17.1902 26.7445C17.1902 26.3529 17.2056 25.7205 17.2365 24.8471C17.2983 23.9435 17.36 22.9346 17.4218 21.8202C17.5144 20.7059 17.6071 19.5313 17.6997 18.2965C17.7923 17.0315 17.8695 15.8419 17.9313 14.7275C18.0239 13.6132 18.1012 12.6344 18.1629 11.7911C18.2556 10.9478 18.3173 10.3454 18.3482 9.984C18.41 9.44188 18.5335 9.08047 18.7188 8.89976C18.904 8.68894 19.2128 8.58353 19.6452 8.58353H21.1274C22.0847 8.58353 22.8722 8.67388 23.4898 8.85459C24.1074 9.03529 24.586 9.2913 24.9257 9.62259C25.2963 9.95388 25.5433 10.3605 25.6669 10.8424C25.8213 11.2941 25.8985 11.8212 25.8985 12.4235Z" fill="#0F544E"/>
<path d="M59.6945 29.4551C59.6945 28.7925 59.7408 27.9341 59.8334 26.88C59.957 25.7958 60.065 24.6664 60.1577 23.4918C60.2812 22.2871 60.3893 21.1275 60.4819 20.0132C60.6054 18.8988 60.6672 17.9652 60.6672 17.2122C60.6672 16.4292 60.4665 15.7365 60.065 15.1341C59.6945 14.5016 58.9533 14.1854 57.8416 14.1854C56.7608 14.1854 55.8653 14.4414 55.155 14.9534C54.4448 15.4654 53.8426 16.3991 53.3485 17.7544C52.8853 19.1096 52.4993 20.9769 52.1905 23.3562C51.8817 25.7355 51.5884 28.7925 51.3104 32.5271C51.2796 32.8885 51.2023 33.1294 51.0788 33.2499C50.9553 33.3704 50.6928 33.4306 50.2914 33.4306H48.6238C47.6665 33.4306 46.8791 33.3402 46.2615 33.1595C45.6747 32.9487 45.1961 32.6626 44.8255 32.3012C44.4859 31.9398 44.2388 31.5031 44.0844 30.9911C43.9609 30.4489 43.8991 29.8315 43.8991 29.1388C43.8991 28.6871 43.9146 28.0546 43.9454 27.2414C44.0072 26.3981 44.0998 25.2537 44.2234 23.808C44.3469 22.3322 44.4858 20.48 44.6403 18.2513C44.8255 15.9925 45.0417 13.2066 45.2887 9.89365C45.3196 9.23106 45.3968 8.83953 45.5203 8.71906C45.613 8.62871 45.86 8.58353 46.2615 8.58353H48.068C48.9944 8.58353 49.751 8.68894 50.3377 8.89976C50.9553 9.11059 51.4494 9.39671 51.82 9.75812C52.1905 10.0894 52.453 10.496 52.6074 10.9779C52.7618 11.4296 52.8545 11.8965 52.8853 12.3784C53.8426 10.7821 54.9389 9.68282 56.1741 9.08047C57.4093 8.448 58.9533 8.13177 60.8062 8.13177C62.1032 8.13177 63.2303 8.2673 64.1876 8.53835C65.1449 8.80941 65.9323 9.27623 66.5499 9.93882C67.1984 10.5713 67.6771 11.4146 67.9859 12.4687C68.2947 13.4927 68.4491 14.7727 68.4491 16.3087C68.4491 16.7906 68.4182 17.4833 68.3564 18.3868C68.2947 19.2904 68.2175 20.2842 68.1248 21.3685C68.0322 22.4226 67.9241 23.5369 67.8006 24.7115C67.708 25.856 67.6153 26.9252 67.5227 27.9191C67.43 28.9129 67.3528 29.7864 67.2911 30.5393C67.2293 31.2922 67.1984 31.7892 67.1984 32.0301C67.1984 32.6927 67.1212 33.0993 66.9668 33.2499C66.8124 33.3704 66.4727 33.4306 65.9478 33.4306H64.4655C63.4773 33.4306 62.6744 33.3402 62.0568 33.1595C61.4392 32.9788 60.9606 32.7228 60.6209 32.3915C60.2812 32.0602 60.0342 31.6536 59.8798 31.1718C59.7562 30.6598 59.6945 30.0875 59.6945 29.4551Z" fill="#0F544E"/>
<path d="M83.3245 27.8739C84.2201 27.8739 84.9921 27.7534 85.6406 27.5125C86.3199 27.2715 86.9067 27.0005 87.4008 26.6993C87.8948 26.3981 88.3117 26.1271 88.6514 25.8861C88.9911 25.6452 89.2999 25.5247 89.5778 25.5247C90.2881 25.5247 90.6432 25.9765 90.6432 26.88C90.6432 27.0908 90.5969 27.392 90.5042 27.7835C90.4116 28.1449 90.2881 28.5365 90.1337 28.9581C89.9793 29.3497 89.8094 29.7261 89.6242 30.0875C89.4697 30.4489 89.3153 30.72 89.1609 30.9007C89.0065 31.0513 88.7286 31.2922 88.3272 31.6235C87.9566 31.9548 87.4471 32.2861 86.7986 32.6174C86.1501 32.9487 85.3935 33.2348 84.5289 33.4758C83.6642 33.7468 82.7069 33.8824 81.657 33.8824C80.4835 33.8824 79.2638 33.7167 77.9977 33.3854C76.7624 33.024 75.6353 32.4216 74.6162 31.5784C73.5972 30.7049 72.748 29.5454 72.0686 28.0998C71.4201 26.624 71.0959 24.7868 71.0959 22.5882C71.0959 21.8052 71.1422 20.9167 71.2348 19.9228C71.3584 18.8988 71.59 17.8598 71.9296 16.8056C72.2693 15.7214 72.7171 14.6673 73.2729 13.6433C73.8597 12.5892 74.6317 11.6555 75.589 10.8424C76.5463 10.0292 77.6889 9.38165 79.0167 8.89976C80.3755 8.38776 81.9812 8.13177 83.8341 8.13177C85.3472 8.13177 86.6442 8.31247 87.725 8.67388C88.8367 9.00518 89.7477 9.472 90.4579 10.0744C91.1682 10.6466 91.6931 11.3242 92.0328 12.1073C92.4034 12.8904 92.5887 13.7336 92.5887 14.6372C92.5887 16.2635 92.0637 17.4682 91.0138 18.2513C89.9638 19.0042 88.4816 19.3807 86.567 19.3807C86.1038 19.3807 85.7795 19.3506 85.5943 19.2904C85.4398 19.2 85.3626 19.0193 85.3626 18.7482C85.3626 18.0254 85.3472 17.3779 85.3163 16.8056C85.2854 16.2334 85.1928 15.7515 85.0384 15.36C84.9149 14.9685 84.7141 14.6673 84.4362 14.4565C84.1583 14.2456 83.7569 14.1402 83.2319 14.1402C82.2746 14.1402 81.5026 14.4414 80.9159 15.0438C80.36 15.6461 79.9277 16.384 79.6189 17.2574C79.341 18.1007 79.1557 18.9741 79.063 19.8776C79.0013 20.7812 78.9704 21.5341 78.9704 22.1365C78.9704 24.2748 79.3101 25.7656 79.9894 26.6089C80.6997 27.4522 81.8114 27.8739 83.3245 27.8739Z" fill="#0F544E"/>
<path d="M109.626 27.8287C109.719 26.8348 109.811 25.7958 109.904 24.7115C110.027 23.6273 110.12 22.5882 110.182 21.5944C110.274 20.6005 110.352 19.712 110.413 18.9289C110.475 18.1459 110.506 17.5736 110.506 17.2122C110.506 16.4292 110.305 15.7365 109.904 15.1341C109.533 14.5016 108.792 14.1854 107.681 14.1854C106.198 14.1854 104.994 14.8631 104.068 16.2184C103.172 17.5736 102.647 19.3807 102.493 21.6395C102.431 22.272 102.354 23.1605 102.261 24.3049C102.168 25.4193 102.076 26.5638 101.983 27.7384C101.89 28.8828 101.798 29.9219 101.705 30.8555C101.643 31.7591 101.613 32.3162 101.613 32.5271C101.613 32.8885 101.535 33.1294 101.381 33.2499C101.257 33.3704 100.995 33.4306 100.593 33.4306H98.9259C97.9686 33.4306 97.1812 33.3402 96.5636 33.1595C95.9768 32.9487 95.4982 32.6626 95.1276 32.3012C94.7879 31.9398 94.5409 31.5031 94.3865 30.9911C94.263 30.4489 94.2012 29.8315 94.2012 29.1388C94.2012 28.4762 94.2475 27.5577 94.3402 26.3831C94.4637 25.1784 94.6181 23.5369 94.8034 21.4588C94.9887 19.3506 95.2048 16.6701 95.4519 13.4174C95.6989 10.1647 95.9614 6.12894 96.2393 1.31012C96.2702 0.647528 96.3474 0.255998 96.4709 0.135527C96.5636 0.0451757 96.8106 0 97.2121 0H99.0186C99.945 0 100.717 0.105411 101.335 0.316234C101.952 0.527058 102.446 0.813176 102.817 1.17459C103.187 1.536 103.45 1.95765 103.604 2.43953C103.759 2.89129 103.836 3.37318 103.836 3.88518C103.836 4.42729 103.774 5.43623 103.651 6.912C103.558 8.38776 103.434 10.1195 103.28 12.1073C104.206 10.6014 105.226 9.56235 106.337 8.99012C107.48 8.41788 108.916 8.13177 110.645 8.13177C111.942 8.13177 113.069 8.2673 114.026 8.53835C114.984 8.80941 115.771 9.27623 116.389 9.93882C117.037 10.5713 117.516 11.4146 117.825 12.4687C118.134 13.4927 118.288 14.7727 118.288 16.3087C118.288 16.7906 118.242 17.6188 118.149 18.7934C118.056 19.968 117.933 21.3082 117.778 22.8141C117.655 24.32 117.516 25.9012 117.362 27.5576C117.238 29.184 117.13 30.6748 117.037 32.0301C117.006 32.3614 116.976 32.6174 116.945 32.7981C116.914 32.9788 116.852 33.1144 116.759 33.2047C116.698 33.2951 116.59 33.3553 116.435 33.3854C116.281 33.4155 116.065 33.4306 115.787 33.4306H114.304C113.316 33.4306 112.513 33.3402 111.896 33.1595C111.278 32.9788 110.799 32.7228 110.46 32.3915C110.12 32.0602 109.873 31.6536 109.719 31.1718C109.595 30.6598 109.533 30.0875 109.533 29.4551C109.533 29.1539 109.533 28.8678 109.533 28.5967C109.564 28.3256 109.595 28.0696 109.626 27.8287Z" fill="#0F544E"/>
<path d="M126.876 33.8372C124.961 33.8372 123.587 33.3402 122.753 32.3464C121.919 31.3525 121.503 29.7111 121.503 27.4221C121.503 27.0607 121.518 26.6089 121.549 26.0668C121.611 25.5247 121.672 24.832 121.734 23.9887C121.827 23.1153 121.935 22.0461 122.058 20.7812C122.182 19.5162 122.305 17.9802 122.429 16.1732C122.583 14.3661 122.738 12.2428 122.892 9.80329C123.077 7.36376 123.263 4.53271 123.448 1.31012C123.479 0.647528 123.556 0.255998 123.68 0.135527C123.772 0.0451757 124.019 0 124.421 0H126.227C127.154 0 127.926 0.105411 128.543 0.316234C129.161 0.527058 129.655 0.813176 130.026 1.17459C130.396 1.536 130.659 1.95765 130.813 2.43953C130.967 2.89129 131.045 3.37318 131.045 3.88518C131.045 4.48753 130.998 5.36094 130.906 6.50541C130.844 7.61976 130.751 8.88471 130.628 10.3002C130.504 11.7158 130.381 13.1915 130.257 14.7275C130.134 16.2635 130.01 17.7393 129.887 19.1548C129.763 20.5402 129.655 21.7901 129.562 22.9045C129.501 24.0188 129.47 24.8621 129.47 25.4344C129.47 26.2174 129.609 26.7746 129.887 27.1059C130.195 27.4372 130.52 27.6781 130.859 27.8287C131.199 27.9492 131.508 28.0395 131.786 28.0998C132.095 28.1299 132.249 28.2202 132.249 28.3708C132.249 29.0334 132.172 29.696 132.017 30.3586C131.863 30.9911 131.585 31.5784 131.184 32.1205C130.782 32.6325 130.226 33.0541 129.516 33.3854C128.837 33.6866 127.957 33.8372 126.876 33.8372Z" fill="#0F544E"/>
<path d="M133.164 27.8739C133.164 25.1633 134.415 23.04 136.916 21.504C139.417 19.968 143.108 19.1398 147.987 19.0193C148.018 18.688 148.033 18.4169 148.033 18.2061C148.064 17.9652 148.079 17.6791 148.079 17.3478C148.079 16.384 147.894 15.616 147.524 15.0438C147.153 14.4715 146.381 14.1854 145.208 14.1854C144.559 14.1854 144.034 14.2758 143.633 14.4565C143.231 14.6372 142.907 14.8932 142.66 15.2245C142.413 15.5256 142.212 15.9021 142.058 16.3539C141.903 16.8056 141.764 17.3026 141.641 17.8447C141.579 18.1158 141.44 18.2965 141.224 18.3868C141.008 18.4471 140.668 18.4772 140.205 18.4772C137.055 18.4772 135.48 17.3176 135.48 14.9986C135.48 14.0649 135.696 13.1765 136.129 12.3332C136.592 11.4899 137.256 10.7671 138.12 10.1647C139.016 9.53224 140.128 9.03529 141.456 8.67388C142.783 8.31247 144.327 8.13177 146.088 8.13177C149.515 8.13177 152.001 8.82447 153.545 10.2099C155.089 11.5953 155.861 13.5529 155.861 16.0828C155.861 16.4141 155.815 17.0165 155.722 17.8899C155.661 18.7332 155.568 19.6367 155.444 20.6005C155.352 21.5341 155.259 22.4226 155.166 23.2659C155.105 24.1092 155.074 24.6965 155.074 25.0278C155.074 25.7807 155.213 26.3228 155.491 26.6541C155.769 26.9553 156.077 27.1661 156.417 27.2866C156.788 27.4071 157.112 27.4974 157.39 27.5576C157.668 27.6179 157.807 27.7685 157.807 28.0094C157.807 28.672 157.714 29.3497 157.529 30.0424C157.344 30.7351 157.035 31.3675 156.602 31.9398C156.201 32.512 155.63 32.9788 154.889 33.3402C154.178 33.7016 153.298 33.8824 152.248 33.8824C150.766 33.8824 149.654 33.536 148.913 32.8433C148.172 32.1506 147.678 31.1868 147.431 29.952C146.69 31.0061 145.717 31.9247 144.513 32.7078C143.339 33.4908 141.795 33.8824 139.881 33.8824C138.954 33.8824 138.074 33.7769 137.24 33.5661C136.437 33.3553 135.727 33.0089 135.11 32.5271C134.523 32.0452 134.044 31.4278 133.674 30.6748C133.334 29.8918 133.164 28.9581 133.164 27.8739ZM147.57 22.7238C146.767 22.7238 145.98 22.784 145.208 22.9045C144.436 23.0249 143.741 23.2207 143.123 23.4918C142.536 23.7327 142.058 24.064 141.687 24.4856C141.317 24.9073 141.131 25.4193 141.131 26.0217C141.131 26.7144 141.347 27.1962 141.78 27.4673C142.243 27.7384 142.737 27.8739 143.262 27.8739C143.756 27.8739 144.25 27.7685 144.744 27.5576C145.238 27.3468 145.671 27.0306 146.041 26.6089C146.443 26.1572 146.782 25.6151 147.06 24.9826C147.338 24.3501 147.508 23.5972 147.57 22.7238Z" fill="#0F544E"/>
<path d="M170.335 33.8824C167.958 33.8824 166.074 33.5511 164.684 32.8885C163.295 32.1958 162.245 31.3374 161.534 30.3134C160.824 29.2894 160.376 28.1901 160.191 27.0155C160.006 25.8108 159.913 24.7115 159.913 23.7177C159.913 23.3261 159.944 22.5581 160.006 21.4137C160.099 20.2692 160.207 18.944 160.33 17.4381C160.454 15.9322 160.577 14.336 160.701 12.6494C160.824 10.9327 160.948 9.32141 161.071 7.81553C161.195 6.27953 161.287 4.92424 161.349 3.74965C161.442 2.57506 161.488 1.76188 161.488 1.31012C161.488 0.647528 161.534 0.271057 161.627 0.180704C161.72 0.0602345 161.998 0 162.461 0H164.267C165.194 0 165.966 0.105411 166.583 0.316234C167.201 0.527058 167.695 0.813176 168.066 1.17459C168.436 1.536 168.699 1.95765 168.853 2.43953C169.008 2.89129 169.085 3.38824 169.085 3.93035C169.085 4.44235 169.023 5.43623 168.899 6.912C168.807 8.38776 168.683 10.1195 168.529 12.1073C169.332 10.752 170.243 9.75812 171.262 9.12565C172.281 8.46306 173.624 8.13177 175.292 8.13177C178.102 8.13177 180.248 9.0353 181.73 10.8424C183.243 12.6494 184 15.3449 184 18.9289C184 19.8626 183.923 20.8866 183.768 22.0009C183.645 23.1153 183.398 24.2297 183.027 25.344C182.688 26.4282 182.194 27.4974 181.545 28.5515C180.927 29.5755 180.109 30.4791 179.09 31.2621C178.071 32.0452 176.836 32.6777 175.384 33.1595C173.964 33.6414 172.281 33.8824 170.335 33.8824ZM172.42 14.1402C171.308 14.1402 170.428 14.4264 169.78 14.9986C169.162 15.5708 168.683 16.2635 168.344 17.0767C168.004 17.8899 167.788 18.7633 167.695 19.6969C167.602 20.6005 167.556 21.3986 167.556 22.0913C167.556 24.1694 167.85 25.6602 168.436 26.5638C169.023 27.4372 169.903 27.8739 171.077 27.8739C172.188 27.8739 173.053 27.5426 173.671 26.88C174.319 26.1873 174.798 25.3741 175.106 24.4405C175.446 23.5068 175.662 22.5581 175.755 21.5944C175.848 20.6306 175.894 19.8777 175.894 19.3355C175.894 17.6489 175.631 16.3689 175.106 15.4955C174.581 14.592 173.686 14.1402 172.42 14.1402Z" fill="#0F544E"/>
<path d="M7.30384 49.8431C4.96864 47.9749 3.80104 47.0408 3.71279 46.2117C3.64918 45.614 3.85776 45.0193 4.28082 44.5923C4.86771 44 6.36297 44 9.35348 44H178.647C181.637 44 183.132 44 183.719 44.5923C184.142 45.0193 184.351 45.614 184.287 46.2117C184.199 47.0408 183.031 47.9749 180.696 49.8431V49.8431C179.656 50.6755 179.135 51.0918 178.552 51.3799C178.116 51.5949 177.656 51.7563 177.182 51.8605C176.546 52 175.88 52 174.547 52H13.4528C12.1202 52 11.4539 52 10.8182 51.8605C10.3438 51.7563 9.88377 51.5949 9.44825 51.3799C8.86471 51.0918 8.34442 50.6755 7.30384 49.8431V49.8431Z" fill="#F9BC6E"/>
</svg>
