<svg width="192" height="50" viewBox="0 0 192 50" fill="#0F544E" xmlns="http://www.w3.org/2000/svg">
<path d="M11.3732 33.8372C9.45861 33.8372 8.08443 33.3402 7.25066 32.3464C6.41689 31.3525 6 29.7111 6 27.4221C6 27.0607 6.01544 26.6089 6.04632 26.0668C6.10808 25.5247 6.16984 24.832 6.2316 23.9887C6.32424 23.1153 6.43233 22.0461 6.55585 20.7812C6.67937 19.5162 6.80289 17.9802 6.92641 16.1732C7.08082 14.3661 7.23522 12.2428 7.38962 9.80329C7.5749 7.36376 7.76019 4.53271 7.94547 1.31012C7.97635 0.647528 8.05355 0.255998 8.17707 0.135527C8.26971 0.0451757 8.51676 0 8.9182 0H10.7247C11.6511 0 12.4231 0.105411 13.0407 0.316234C13.6584 0.527058 14.1524 0.813176 14.523 1.17459C14.8936 1.536 15.1561 1.95765 15.3105 2.43953C15.4649 2.89129 15.5421 3.37318 15.5421 3.88518C15.5421 4.48753 15.4957 5.36094 15.4031 6.50541C15.3413 7.61976 15.2487 8.88471 15.1252 10.3002C15.0017 11.7158 14.8781 13.1915 14.7546 14.7275C14.6311 16.2635 14.5076 17.7393 14.384 19.1548C14.2605 20.5402 14.1524 21.7901 14.0598 22.9045C13.998 24.0188 13.9672 24.8621 13.9672 25.4344C13.9672 26.2174 14.1061 26.7746 14.384 27.1059C14.6928 27.4372 15.0171 27.6781 15.3568 27.8287C15.6965 27.9492 16.0053 28.0395 16.2832 28.0998C16.592 28.1299 16.7464 28.2202 16.7464 28.3708C16.7464 29.0334 16.6692 29.696 16.5148 30.3586C16.3604 30.9911 16.0825 31.5784 15.681 32.1205C15.2796 32.6325 14.7237 33.0541 14.0135 33.3854C13.3341 33.6866 12.454 33.8372 11.3732 33.8372Z"/>
<path d="M27.8985 12.4235C27.8985 13.056 27.8367 13.9445 27.7132 15.0889C27.6205 16.2334 27.5125 17.4231 27.3889 18.6579C27.2963 19.8927 27.1882 21.0522 27.0647 22.1365C26.9721 23.2207 26.9257 24.0038 26.9257 24.4856C26.9257 25.5398 27.1882 26.368 27.7132 26.9704C28.269 27.5426 29.0256 27.8287 29.9829 27.8287C30.8167 27.8287 31.5115 27.5125 32.0673 26.88C32.6541 26.2174 33.1173 25.3741 33.4569 24.3501C33.8275 23.296 34.1209 22.1064 34.337 20.7812C34.5532 19.456 34.7076 18.1158 34.8002 16.7605C34.9238 15.4052 35.0164 14.0951 35.0782 12.8301C35.1708 11.5351 35.2635 10.4207 35.3561 9.48706C35.387 9.24612 35.4796 9.03529 35.634 8.85459C35.7884 8.67388 36.0355 8.58353 36.3752 8.58353H38.0427C39 8.58353 39.772 8.68894 40.3587 8.89976C40.9763 9.08047 41.455 9.35153 41.7947 9.71294C42.1652 10.0744 42.4123 10.5261 42.5358 11.0682C42.6902 11.5802 42.7674 12.1826 42.7674 12.8753C42.7674 13.3271 42.7365 13.9746 42.6748 14.8179C42.6439 15.6311 42.5667 16.7755 42.4432 18.2513C42.3196 19.6969 42.1652 21.5492 41.98 23.808C41.8256 26.0367 41.6248 28.8075 41.3778 32.1205C41.316 32.7529 41.2388 33.1294 41.1462 33.2499C41.0844 33.3704 40.8374 33.4306 40.405 33.4306H38.5985C37.6721 33.4306 36.9001 33.3252 36.2825 33.1144C35.6958 32.9035 35.2171 32.6325 34.8466 32.3012C34.476 31.9699 34.2135 31.5784 34.0591 31.1266C33.9047 30.6748 33.8121 30.208 33.7812 29.7261C33.318 30.5092 32.793 31.1718 32.2063 31.7139C31.6504 32.256 31.0637 32.6927 30.4461 33.024C29.8285 33.3252 29.1954 33.536 28.547 33.6565C27.8985 33.8071 27.2654 33.8824 26.6478 33.8824C25.4743 33.8824 24.4244 33.7016 23.498 33.3402C22.5716 32.9487 21.7841 32.4367 21.1356 31.8042C20.518 31.1718 20.0394 30.4188 19.6997 29.5454C19.36 28.672 19.1902 27.7384 19.1902 26.7445C19.1902 26.3529 19.2056 25.7205 19.2365 24.8471C19.2983 23.9435 19.36 22.9346 19.4218 21.8202C19.5144 20.7059 19.6071 19.5313 19.6997 18.2965C19.7923 17.0315 19.8695 15.8419 19.9313 14.7275C20.0239 13.6132 20.1012 12.6344 20.1629 11.7911C20.2556 10.9478 20.3173 10.3454 20.3482 9.984C20.41 9.44188 20.5335 9.08047 20.7188 8.89976C20.904 8.68894 21.2128 8.58353 21.6452 8.58353H23.1274C24.0847 8.58353 24.8722 8.67388 25.4898 8.85459C26.1074 9.03529 26.586 9.2913 26.9257 9.62259C27.2963 9.95388 27.5433 10.3605 27.6669 10.8424C27.8213 11.2941 27.8985 11.8212 27.8985 12.4235Z"/>
<path d="M61.6945 29.4551C61.6945 28.7925 61.7408 27.9341 61.8334 26.88C61.957 25.7958 62.065 24.6664 62.1577 23.4918C62.2812 22.2871 62.3893 21.1275 62.4819 20.0132C62.6054 18.8988 62.6672 17.9652 62.6672 17.2122C62.6672 16.4292 62.4665 15.7365 62.065 15.1341C61.6945 14.5016 60.9533 14.1854 59.8416 14.1854C58.7608 14.1854 57.8653 14.4414 57.155 14.9534C56.4448 15.4654 55.8426 16.3991 55.3485 17.7544C54.8853 19.1096 54.4993 20.9769 54.1905 23.3562C53.8817 25.7355 53.5884 28.7925 53.3104 32.5271C53.2796 32.8885 53.2023 33.1294 53.0788 33.2499C52.9553 33.3704 52.6928 33.4306 52.2914 33.4306H50.6238C49.6665 33.4306 48.8791 33.3402 48.2615 33.1595C47.6747 32.9487 47.1961 32.6626 46.8255 32.3012C46.4859 31.9398 46.2388 31.5031 46.0844 30.9911C45.9609 30.4489 45.8991 29.8315 45.8991 29.1388C45.8991 28.6871 45.9146 28.0546 45.9454 27.2414C46.0072 26.3981 46.0998 25.2537 46.2234 23.808C46.3469 22.3322 46.4858 20.48 46.6403 18.2513C46.8255 15.9925 47.0417 13.2066 47.2887 9.89365C47.3196 9.23106 47.3968 8.83953 47.5203 8.71906C47.613 8.62871 47.86 8.58353 48.2615 8.58353H50.068C50.9944 8.58353 51.751 8.68894 52.3377 8.89976C52.9553 9.11059 53.4494 9.39671 53.82 9.75812C54.1905 10.0894 54.453 10.496 54.6074 10.9779C54.7618 11.4296 54.8545 11.8965 54.8853 12.3784C55.8426 10.7821 56.9389 9.68282 58.1741 9.08047C59.4093 8.448 60.9533 8.13177 62.8062 8.13177C64.1032 8.13177 65.2303 8.2673 66.1876 8.53835C67.1449 8.80941 67.9323 9.27623 68.5499 9.93882C69.1984 10.5713 69.6771 11.4146 69.9859 12.4687C70.2947 13.4927 70.4491 14.7727 70.4491 16.3087C70.4491 16.7906 70.4182 17.4833 70.3564 18.3868C70.2947 19.2904 70.2175 20.2842 70.1248 21.3685C70.0322 22.4226 69.9241 23.5369 69.8006 24.7115C69.708 25.856 69.6153 26.9252 69.5227 27.9191C69.43 28.9129 69.3528 29.7864 69.2911 30.5393C69.2293 31.2922 69.1984 31.7892 69.1984 32.0301C69.1984 32.6927 69.1212 33.0993 68.9668 33.2499C68.8124 33.3704 68.4727 33.4306 67.9478 33.4306H66.4655C65.4773 33.4306 64.6744 33.3402 64.0568 33.1595C63.4392 32.9788 62.9606 32.7228 62.6209 32.3915C62.2812 32.0602 62.0342 31.6536 61.8798 31.1718C61.7562 30.6598 61.6945 30.0875 61.6945 29.4551Z"/>
<path d="M85.3245 27.8739C86.2201 27.8739 86.9921 27.7534 87.6406 27.5125C88.3199 27.2715 88.9067 27.0005 89.4008 26.6993C89.8948 26.3981 90.3117 26.1271 90.6514 25.8861C90.9911 25.6452 91.2999 25.5247 91.5778 25.5247C92.2881 25.5247 92.6432 25.9765 92.6432 26.88C92.6432 27.0908 92.5969 27.392 92.5042 27.7835C92.4116 28.1449 92.2881 28.5365 92.1337 28.9581C91.9793 29.3497 91.8094 29.7261 91.6242 30.0875C91.4697 30.4489 91.3153 30.72 91.1609 30.9007C91.0065 31.0513 90.7286 31.2922 90.3272 31.6235C89.9566 31.9548 89.4471 32.2861 88.7986 32.6174C88.1501 32.9487 87.3935 33.2348 86.5289 33.4758C85.6642 33.7468 84.7069 33.8824 83.657 33.8824C82.4835 33.8824 81.2638 33.7167 79.9977 33.3854C78.7624 33.024 77.6353 32.4216 76.6162 31.5784C75.5972 30.7049 74.748 29.5454 74.0686 28.0998C73.4201 26.624 73.0959 24.7868 73.0959 22.5882C73.0959 21.8052 73.1422 20.9167 73.2348 19.9228C73.3584 18.8988 73.59 17.8598 73.9296 16.8056C74.2693 15.7214 74.7171 14.6673 75.2729 13.6433C75.8597 12.5892 76.6317 11.6555 77.589 10.8424C78.5463 10.0292 79.6889 9.38165 81.0167 8.89976C82.3755 8.38776 83.9812 8.13177 85.8341 8.13177C87.3472 8.13177 88.6442 8.31247 89.725 8.67388C90.8367 9.00518 91.7477 9.472 92.4579 10.0744C93.1682 10.6466 93.6931 11.3242 94.0328 12.1073C94.4034 12.8904 94.5887 13.7336 94.5887 14.6372C94.5887 16.2635 94.0637 17.4682 93.0138 18.2513C91.9638 19.0042 90.4816 19.3807 88.567 19.3807C88.1038 19.3807 87.7795 19.3506 87.5943 19.2904C87.4398 19.2 87.3626 19.0193 87.3626 18.7482C87.3626 18.0254 87.3472 17.3779 87.3163 16.8056C87.2854 16.2334 87.1928 15.7515 87.0384 15.36C86.9149 14.9685 86.7141 14.6673 86.4362 14.4565C86.1583 14.2456 85.7569 14.1402 85.2319 14.1402C84.2746 14.1402 83.5026 14.4414 82.9159 15.0438C82.36 15.6461 81.9277 16.384 81.6189 17.2574C81.341 18.1007 81.1557 18.9741 81.063 19.8776C81.0013 20.7812 80.9704 21.5341 80.9704 22.1365C80.9704 24.2748 81.3101 25.7656 81.9894 26.6089C82.6997 27.4522 83.8114 27.8739 85.3245 27.8739Z"/>
<path d="M111.626 27.8287C111.719 26.8348 111.811 25.7958 111.904 24.7115C112.027 23.6273 112.12 22.5882 112.182 21.5944C112.274 20.6005 112.352 19.712 112.413 18.9289C112.475 18.1459 112.506 17.5736 112.506 17.2122C112.506 16.4292 112.305 15.7365 111.904 15.1341C111.533 14.5016 110.792 14.1854 109.681 14.1854C108.198 14.1854 106.994 14.8631 106.068 16.2184C105.172 17.5736 104.647 19.3807 104.493 21.6395C104.431 22.272 104.354 23.1605 104.261 24.3049C104.168 25.4193 104.076 26.5638 103.983 27.7384C103.89 28.8828 103.798 29.9219 103.705 30.8555C103.643 31.7591 103.613 32.3162 103.613 32.5271C103.613 32.8885 103.535 33.1294 103.381 33.2499C103.257 33.3704 102.995 33.4306 102.593 33.4306H100.926C99.9686 33.4306 99.1812 33.3402 98.5636 33.1595C97.9768 32.9487 97.4982 32.6626 97.1276 32.3012C96.7879 31.9398 96.5409 31.5031 96.3865 30.9911C96.263 30.4489 96.2012 29.8315 96.2012 29.1388C96.2012 28.4762 96.2475 27.5577 96.3402 26.3831C96.4637 25.1784 96.6181 23.5369 96.8034 21.4588C96.9887 19.3506 97.2048 16.6701 97.4519 13.4174C97.6989 10.1647 97.9614 6.12894 98.2393 1.31012C98.2702 0.647528 98.3474 0.255998 98.4709 0.135527C98.5636 0.0451757 98.8106 0 99.2121 0H101.019C101.945 0 102.717 0.105411 103.335 0.316234C103.952 0.527058 104.446 0.813176 104.817 1.17459C105.187 1.536 105.45 1.95765 105.604 2.43953C105.759 2.89129 105.836 3.37318 105.836 3.88518C105.836 4.42729 105.774 5.43623 105.651 6.912C105.558 8.38776 105.434 10.1195 105.28 12.1073C106.206 10.6014 107.226 9.56235 108.337 8.99012C109.48 8.41788 110.916 8.13177 112.645 8.13177C113.942 8.13177 115.069 8.2673 116.026 8.53835C116.984 8.80941 117.771 9.27623 118.389 9.93882C119.037 10.5713 119.516 11.4146 119.825 12.4687C120.134 13.4927 120.288 14.7727 120.288 16.3087C120.288 16.7906 120.242 17.6188 120.149 18.7934C120.056 19.968 119.933 21.3082 119.778 22.8141C119.655 24.32 119.516 25.9012 119.362 27.5576C119.238 29.184 119.13 30.6748 119.037 32.0301C119.006 32.3614 118.976 32.6174 118.945 32.7981C118.914 32.9788 118.852 33.1144 118.759 33.2047C118.698 33.2951 118.59 33.3553 118.435 33.3854C118.281 33.4155 118.065 33.4306 117.787 33.4306H116.304C115.316 33.4306 114.513 33.3402 113.896 33.1595C113.278 32.9788 112.799 32.7228 112.46 32.3915C112.12 32.0602 111.873 31.6536 111.719 31.1718C111.595 30.6598 111.533 30.0875 111.533 29.4551C111.533 29.1539 111.533 28.8678 111.533 28.5967C111.564 28.3256 111.595 28.0696 111.626 27.8287Z"/>
<path d="M128.876 33.8372C126.961 33.8372 125.587 33.3402 124.753 32.3464C123.919 31.3525 123.503 29.7111 123.503 27.4221C123.503 27.0607 123.518 26.6089 123.549 26.0668C123.611 25.5247 123.672 24.832 123.734 23.9887C123.827 23.1153 123.935 22.0461 124.058 20.7812C124.182 19.5162 124.305 17.9802 124.429 16.1732C124.583 14.3661 124.738 12.2428 124.892 9.80329C125.077 7.36376 125.263 4.53271 125.448 1.31012C125.479 0.647528 125.556 0.255998 125.68 0.135527C125.772 0.0451757 126.019 0 126.421 0H128.227C129.154 0 129.926 0.105411 130.543 0.316234C131.161 0.527058 131.655 0.813176 132.026 1.17459C132.396 1.536 132.659 1.95765 132.813 2.43953C132.967 2.89129 133.045 3.37318 133.045 3.88518C133.045 4.48753 132.998 5.36094 132.906 6.50541C132.844 7.61976 132.751 8.88471 132.628 10.3002C132.504 11.7158 132.381 13.1915 132.257 14.7275C132.134 16.2635 132.01 17.7393 131.887 19.1548C131.763 20.5402 131.655 21.7901 131.562 22.9045C131.501 24.0188 131.47 24.8621 131.47 25.4344C131.47 26.2174 131.609 26.7746 131.887 27.1059C132.195 27.4372 132.52 27.6781 132.859 27.8287C133.199 27.9492 133.508 28.0395 133.786 28.0998C134.095 28.1299 134.249 28.2202 134.249 28.3708C134.249 29.0334 134.172 29.696 134.017 30.3586C133.863 30.9911 133.585 31.5784 133.184 32.1205C132.782 32.6325 132.226 33.0541 131.516 33.3854C130.837 33.6866 129.957 33.8372 128.876 33.8372Z"/>
<path d="M135.164 27.8739C135.164 25.1633 136.415 23.04 138.916 21.504C141.417 19.968 145.108 19.1398 149.987 19.0193C150.018 18.688 150.033 18.4169 150.033 18.2061C150.064 17.9652 150.079 17.6791 150.079 17.3478C150.079 16.384 149.894 15.616 149.524 15.0438C149.153 14.4715 148.381 14.1854 147.208 14.1854C146.559 14.1854 146.034 14.2758 145.633 14.4565C145.231 14.6372 144.907 14.8932 144.66 15.2245C144.413 15.5256 144.212 15.9021 144.058 16.3539C143.903 16.8056 143.764 17.3026 143.641 17.8447C143.579 18.1158 143.44 18.2965 143.224 18.3868C143.008 18.4471 142.668 18.4772 142.205 18.4772C139.055 18.4772 137.48 17.3176 137.48 14.9986C137.48 14.0649 137.696 13.1765 138.129 12.3332C138.592 11.4899 139.256 10.7671 140.12 10.1647C141.016 9.53224 142.128 9.03529 143.456 8.67388C144.783 8.31247 146.327 8.13177 148.088 8.13177C151.515 8.13177 154.001 8.82447 155.545 10.2099C157.089 11.5953 157.861 13.5529 157.861 16.0828C157.861 16.4141 157.815 17.0165 157.722 17.8899C157.661 18.7332 157.568 19.6367 157.444 20.6005C157.352 21.5341 157.259 22.4226 157.166 23.2659C157.105 24.1092 157.074 24.6965 157.074 25.0278C157.074 25.7807 157.213 26.3228 157.491 26.6541C157.769 26.9553 158.077 27.1661 158.417 27.2866C158.788 27.4071 159.112 27.4974 159.39 27.5576C159.668 27.6179 159.807 27.7685 159.807 28.0094C159.807 28.672 159.714 29.3497 159.529 30.0424C159.344 30.7351 159.035 31.3675 158.602 31.9398C158.201 32.512 157.63 32.9788 156.889 33.3402C156.178 33.7016 155.298 33.8824 154.248 33.8824C152.766 33.8824 151.654 33.536 150.913 32.8433C150.172 32.1506 149.678 31.1868 149.431 29.952C148.69 31.0061 147.717 31.9247 146.513 32.7078C145.339 33.4908 143.795 33.8824 141.881 33.8824C140.954 33.8824 140.074 33.7769 139.24 33.5661C138.437 33.3553 137.727 33.0089 137.11 32.5271C136.523 32.0452 136.044 31.4278 135.674 30.6748C135.334 29.8918 135.164 28.9581 135.164 27.8739ZM149.57 22.7238C148.767 22.7238 147.98 22.784 147.208 22.9045C146.436 23.0249 145.741 23.2207 145.123 23.4918C144.536 23.7327 144.058 24.064 143.687 24.4856C143.317 24.9073 143.131 25.4193 143.131 26.0217C143.131 26.7144 143.347 27.1962 143.78 27.4673C144.243 27.7384 144.737 27.8739 145.262 27.8739C145.756 27.8739 146.25 27.7685 146.744 27.5576C147.238 27.3468 147.671 27.0306 148.041 26.6089C148.443 26.1572 148.782 25.6151 149.06 24.9826C149.338 24.3501 149.508 23.5972 149.57 22.7238Z"/>
<path d="M172.335 33.8824C169.958 33.8824 168.074 33.5511 166.684 32.8885C165.295 32.1958 164.245 31.3374 163.534 30.3134C162.824 29.2894 162.376 28.1901 162.191 27.0155C162.006 25.8108 161.913 24.7115 161.913 23.7177C161.913 23.3261 161.944 22.5581 162.006 21.4137C162.099 20.2692 162.207 18.944 162.33 17.4381C162.454 15.9322 162.577 14.336 162.701 12.6494C162.824 10.9327 162.948 9.32141 163.071 7.81553C163.195 6.27953 163.287 4.92424 163.349 3.74965C163.442 2.57506 163.488 1.76188 163.488 1.31012C163.488 0.647528 163.534 0.271057 163.627 0.180704C163.72 0.0602345 163.998 0 164.461 0H166.267C167.194 0 167.966 0.105411 168.583 0.316234C169.201 0.527058 169.695 0.813176 170.066 1.17459C170.436 1.536 170.699 1.95765 170.853 2.43953C171.008 2.89129 171.085 3.38824 171.085 3.93035C171.085 4.44235 171.023 5.43623 170.899 6.912C170.807 8.38776 170.683 10.1195 170.529 12.1073C171.332 10.752 172.243 9.75812 173.262 9.12565C174.281 8.46306 175.624 8.13177 177.292 8.13177C180.102 8.13177 182.248 9.0353 183.73 10.8424C185.243 12.6494 186 15.3449 186 18.9289C186 19.8626 185.923 20.8866 185.768 22.0009C185.645 23.1153 185.398 24.2297 185.027 25.344C184.688 26.4282 184.194 27.4974 183.545 28.5515C182.927 29.5755 182.109 30.4791 181.09 31.2621C180.071 32.0452 178.836 32.6777 177.384 33.1595C175.964 33.6414 174.281 33.8824 172.335 33.8824ZM174.42 14.1402C173.308 14.1402 172.428 14.4264 171.78 14.9986C171.162 15.5708 170.683 16.2635 170.344 17.0767C170.004 17.8899 169.788 18.7633 169.695 19.6969C169.602 20.6005 169.556 21.3986 169.556 22.0913C169.556 24.1694 169.85 25.6602 170.436 26.5638C171.023 27.4372 171.903 27.8739 173.077 27.8739C174.188 27.8739 175.053 27.5426 175.671 26.88C176.319 26.1873 176.798 25.3741 177.106 24.4405C177.446 23.5068 177.662 22.5581 177.755 21.5944C177.848 20.6306 177.894 19.8777 177.894 19.3355C177.894 17.6489 177.631 16.3689 177.106 15.4955C176.581 14.592 175.686 14.1402 174.42 14.1402Z"/>
<path d="M10.2812 49.1406C8.18847 48.0942 7.14213 47.5711 6.85544 47.1774C6.13425 46.1871 6.46475 44.7871 7.55267 44.2239C7.98514 44 9.15499 44 11.4947 44H180.505C182.845 44 184.015 44 184.447 44.2239C185.535 44.7871 185.866 46.1871 185.145 47.1774C184.858 47.5711 183.812 48.0942 181.719 49.1406V49.1406C181.269 49.3653 181.045 49.4776 180.814 49.5699C180.26 49.7921 179.675 49.9301 179.079 49.9795C178.832 50 178.581 50 178.078 50H13.9217C13.4193 50 13.1681 50 12.9207 49.9795C12.3252 49.9301 11.7404 49.7921 11.1856 49.5699C10.9552 49.4776 10.7305 49.3653 10.2812 49.1406V49.1406Z" fill="#F9BC6E"/>
</svg>
