<svg width="353" height="61" viewBox="0 0 353 61" fill="none" xmlns="http://www.w3.org/2000/svg">
<path d="M11.8372 0.800049V60H0.637207V0.800049H11.8372Z" fill="#0F544E"/>
<path d="M64.7428 15.68V60H53.4628V54.4001C52.0228 56.3201 50.1295 57.84 47.7828 58.96C45.4895 60.0267 42.9828 60.56 40.2628 60.56C36.7962 60.56 33.7295 59.8401 31.0628 58.4001C28.3962 56.9067 26.2895 54.7467 24.7428 51.92C23.2495 49.04 22.5028 45.6267 22.5028 41.68V15.68H33.7028V40.0801C33.7028 43.6001 34.5828 46.32 36.3428 48.24C38.1028 50.1067 40.5028 51.0401 43.5428 51.0401C46.6362 51.0401 49.0628 50.1067 50.8228 48.24C52.5828 46.32 53.4628 43.6001 53.4628 40.0801V15.68H64.7428Z" fill="#0F544E"/>
<path d="M100.353 15.04C105.633 15.04 109.9 16.72 113.153 20.08C116.407 23.3867 118.033 28.0267 118.033 34V60H106.833V35.52C106.833 32 105.953 29.3067 104.193 27.44C102.433 25.52 100.033 24.56 96.9935 24.56C93.9001 24.56 91.4468 25.52 89.6335 27.44C87.8735 29.3067 86.9935 32 86.9935 35.52V60H75.7935V15.68H86.9935V21.2C88.4868 19.28 90.3801 17.7867 92.6735 16.7201C95.0201 15.6 97.5801 15.04 100.353 15.04Z" fill="#0F544E"/>
<path d="M125.804 37.84C125.804 33.2534 126.737 29.2534 128.604 25.84C130.471 22.3734 133.057 19.7067 136.364 17.84C139.671 15.92 143.457 14.96 147.724 14.96C153.217 14.96 157.751 16.3467 161.324 19.12C164.951 21.84 167.377 25.68 168.604 30.64H156.524C155.884 28.72 154.791 27.2267 153.244 26.16C151.751 25.04 149.884 24.48 147.644 24.48C144.444 24.48 141.911 25.6534 140.044 28C138.177 30.2934 137.244 33.5734 137.244 37.84C137.244 42.0534 138.177 45.3334 140.044 47.68C141.911 49.9734 144.444 51.1201 147.644 51.1201C152.177 51.1201 155.137 49.0934 156.524 45.0401H168.604C167.377 49.8401 164.951 53.6534 161.324 56.4801C157.697 59.3067 153.164 60.7201 147.724 60.7201C143.457 60.7201 139.671 59.7867 136.364 57.92C133.057 56 130.471 53.3334 128.604 49.92C126.737 46.4534 125.804 42.4267 125.804 37.84Z" fill="#0F544E"/>
<path d="M201.769 15.04C205.129 15.04 208.116 15.7867 210.729 17.28C213.342 18.72 215.369 20.88 216.809 23.76C218.302 26.5867 219.049 30.0001 219.049 34V60H207.849V35.52C207.849 32 206.969 29.3067 205.209 27.44C203.449 25.52 201.049 24.56 198.009 24.56C194.916 24.56 192.462 25.52 190.649 27.44C188.889 29.3067 188.009 32 188.009 35.52V60H176.809V0.800049H188.009V21.2C189.449 19.28 191.369 17.7867 193.769 16.7201C196.169 15.6 198.836 15.04 201.769 15.04Z" fill="#0F544E"/>
<path d="M240.9 0.800049V60H229.7V0.800049H240.9Z" fill="#0F544E"/>
<path d="M249.085 37.68C249.085 33.2001 249.965 29.2267 251.725 25.76C253.539 22.2934 255.965 19.6267 259.005 17.7601C262.099 15.8934 265.539 14.96 269.325 14.96C272.632 14.96 275.512 15.6267 277.965 16.96C280.472 18.2934 282.472 19.9734 283.965 22V15.68H295.245V60H283.965V53.52C282.525 55.6 280.525 57.3334 277.965 58.7201C275.459 60.0534 272.552 60.7201 269.245 60.7201C265.512 60.7201 262.099 59.76 259.005 57.84C255.965 55.92 253.539 53.2267 251.725 49.7601C249.965 46.2401 249.085 42.2134 249.085 37.68ZM283.965 37.84C283.965 35.12 283.432 32.8 282.365 30.88C281.299 28.9067 279.859 27.4134 278.045 26.4C276.232 25.3334 274.285 24.8 272.205 24.8C270.125 24.8 268.205 25.3067 266.445 26.32C264.685 27.3334 263.245 28.8267 262.125 30.8C261.059 32.72 260.525 35.0134 260.525 37.68C260.525 40.3467 261.059 42.6934 262.125 44.7201C263.245 46.6934 264.685 48.2134 266.445 49.28C268.259 50.3467 270.179 50.88 272.205 50.88C274.285 50.88 276.232 50.3734 278.045 49.3601C279.859 48.2934 281.299 46.8 282.365 44.88C283.432 42.9067 283.965 40.56 283.965 37.84Z" fill="#0F544E"/>
<path d="M317.384 22.16C318.824 20.0267 320.797 18.2934 323.304 16.96C325.864 15.6267 328.771 14.96 332.024 14.96C335.811 14.96 339.224 15.8934 342.264 17.7601C345.357 19.6267 347.784 22.2934 349.544 25.76C351.357 29.1734 352.264 33.1467 352.264 37.68C352.264 42.2134 351.357 46.2401 349.544 49.7601C347.784 53.2267 345.357 55.92 342.264 57.84C339.224 59.76 335.811 60.7201 332.024 60.7201C328.717 60.7201 325.811 60.0801 323.304 58.8001C320.851 57.4667 318.877 55.76 317.384 53.68V60H306.184V0.800049H317.384V22.16ZM340.824 37.68C340.824 35.0134 340.264 32.72 339.144 30.8C338.077 28.8267 336.637 27.3334 334.824 26.32C333.064 25.3067 331.144 24.8 329.064 24.8C327.037 24.8 325.117 25.3334 323.304 26.4C321.544 27.4134 320.104 28.9067 318.984 30.88C317.917 32.8534 317.384 35.1734 317.384 37.84C317.384 40.5067 317.917 42.8267 318.984 44.8C320.104 46.7734 321.544 48.2934 323.304 49.3601C325.117 50.3734 327.037 50.88 329.064 50.88C331.144 50.88 333.064 50.3467 334.824 49.28C336.637 48.2134 338.077 46.6934 339.144 44.7201C340.264 42.7467 340.824 40.4 340.824 37.68Z" fill="#0F544E"/>
</svg>